:SAMPLES-PER-SECOND 30
:FULLY-SPECIFIED
:DEGREES
225
root  -54.4806 41.5985 -3.19902 -172.573 -84.7423 172.413
RightUpLeg  1.88822 -7.24755 -4.32195
RightLeg  2.74415 0.0934904 3.2248
RightFoot  -2.37053 0.101328 -1.51307
RightToes  5.82063e-011 0 -3.6325e-017
Spine  -1.61603 -0.756294 1.79442
Spine1  5.64101 -0.422901 -1.69229
HEad  -5.83275 4.00116 -3.0023
LeftShoulder1  0.719674 -2.0671 -5.02388
LeftArm  -17.6579 6.21589 1.52379
LeftForeArm  15.5934 -7.33449 -2.56257
LeftHand  -0.244104 0.0205437 5.32207
RightShoulder  0.382701 -0.0745757 3.11961
RightArm  -17.3073 2.64695 -1.05752
RightForeArm  1.10492 2.46137 4.61913
RightHand  -0.719619 1.43975 -12.3607
LeftUpLeg  1.34309 4.80843 3.12304
LeftLeg  0.203104 7.71256 -3.83044
LeftFoot  -1.02263 -0.00224214 0.0743972
LeftToes  4.36525e-011 -9.98543e-011 1.0027e-011
226
root  -54.5228 41.6008 -3.19947 -171.705 -84.6499 171.922
RightUpLeg  1.52647 -7.23501 -4.33701
RightLeg  2.74106 0.131959 3.21224
RightFoot  -2.40361 0.0981634 -1.47473
RightToes  5.82063e-011 0 -3.6325e-017
Spine  -1.88344 -0.755954 1.63055
Spine1  5.77352 -0.436373 -1.60585
HEad  -6.33475 3.95877 -2.93778
LeftShoulder1  0.720951 -2.10022 -4.96312
LeftArm  -16.943 6.25351 1.23881
LeftForeArm  15.1496 -6.52486 -2.71972
LeftHand  -0.244104 0.0205437 5.32207
RightShoulder  0.41673 0.0661017 3.6998
RightArm  -17.2019 2.775 -1.28157
RightForeArm  2.04389 2.35572 4.58747
RightHand  -0.680886 1.29279 -11.9538
LeftUpLeg  1.07911 4.71925 3.02433
LeftLeg  0.0410054 7.89806 -3.85683
LeftFoot  -0.995807 0.00046408 0.0372723
LeftToes  4.36525e-011 -9.98543e-011 1.0027e-011
227
root  -54.5613 41.603 -3.20569 -171.309 -84.6252 171.862
RightUpLeg  1.24577 -7.16802 -4.28294
RightLeg  2.66704 0.0649134 3.18387
RightFoot  -2.38318 0.0965408 -1.46048
RightToes  5.82063e-011 0 -3.6325e-017
Spine  -2.0676 -0.793324 1.52675
Spine1  5.84345 -0.483662 -1.56411
HEad  -6.80205 4.00612 -2.77014
LeftShoulder1  0.702431 -2.0445 -4.73309
LeftArm  -16.7228 6.43393 0.970121
LeftForeArm  15.1425 -6.07949 -2.71663
LeftHand  -0.244104 0.0205437 5.32207
RightShoulder  0.449134 0.248393 4.03943
RightArm  -17.428 2.66037 -1.41604
RightForeArm  2.00785 2.3591 4.50498
RightHand  -0.656375 1.07981 -11.892
LeftUpLeg  0.823405 4.6759 2.99171
LeftLeg  -0.0635218 7.97747 -3.8736
LeftFoot  -0.963159 0.00137591 0.0278179
LeftToes  4.36525e-011 -9.98543e-011 1.0027e-011
228
root  -54.6015 41.6043 -3.20756 -171.376 -84.6574 172.098
RightUpLeg  1.1822 -7.11574 -4.22944
RightLeg  2.5526 -0.0144397 3.16926
RightFoot  -2.34288 0.0976849 -1.48969
RightToes  5.82063e-011 0 -3.6325e-017
Spine  -2.11271 -0.823686 1.51846
Spine1  5.93763 -0.538092 -1.47851
HEad  -7.19465 3.86405 -2.72251
LeftShoulder1  0.698575 -1.99562 -4.77933
LeftArm  -16.7408 6.52916 0.954322
LeftForeArm  14.9091 -5.74399 -2.65692
LeftHand  -0.244104 0.0205437 5.32207
RightShoulder  0.450041 0.291581 3.90911
RightArm  -17.9085 2.48079 -1.3032
RightForeArm  1.85877 2.30625 4.3416
RightHand  -0.655993 1.039 -11.9568
LeftUpLeg  0.726631 4.67505 3.00262
LeftLeg  -0.113278 7.9664 -3.87624
LeftFoot  -0.967192 0.00121935 0.0347805
LeftToes  4.36525e-011 -9.98543e-011 1.0027e-011
229
root  -54.6475 41.6048 -3.20432 -171.273 -84.7137 172.04
RightUpLeg  1.22796 -7.12559 -4.24058
RightLeg  2.52256 -0.0496351 3.16804
RightFoot  -2.36053 0.0986658 -1.51715
RightToes  5.82063e-011 0 -3.6325e-017
Spine  -2.05676 -0.815469 1.59502
Spine1  5.96358 -0.539237 -1.44826
HEad  -7.24344 3.17667 -2.71721
LeftShoulder1  0.712207 -2.0386 -4.94572
LeftArm  -16.5528 6.5875 1.22054
LeftForeArm  14.7191 -5.63986 -2.70219
LeftHand  -0.244104 0.0205437 5.32207
RightShoulder  0.419118 0.103655 3.63897
RightArm  -18.086 2.45609 -1.21183
RightForeArm  2.00315 2.17845 4.26701
RightHand  -0.662038 1.15836 -11.8556
LeftUpLeg  0.76972 4.66465 2.99053
LeftLeg  -0.165092 7.92376 -3.87788
LeftFoot  -0.991437 0.00089802 0.0441463
LeftToes  4.36525e-011 -9.98543e-011 1.0027e-011
